<svg xmlns="http://www.w3.org/2000/svg" xmlns:xlink="http://www.w3.org/1999/xlink" width="44" height="48" viewBox="0 0 44 48">
    <defs>
        <path id="a" d="M0 .756h32.139V47H0z"/>
        <path id="c" d="M.905.35h20.328v28.252H.905z"/>
    </defs>
    <g fill="none" fill-rule="evenodd">
        <path fill="#2B97EF" d="M18.66 15.98c-1.1 0-1.994.895-1.994 1.994 0 1.1.895 1.994 1.995 1.994s1.995-.893 1.995-1.994a1.997 1.997 0 0 0-1.995-1.995"/>
        <g transform="translate(0 .244)">
            <mask id="b" fill="#fff">
                <use xlink:href="#a"/>
            </mask>
            <path fill="#2966FF" d="M18.66 22.385a4.66 4.66 0 0 1-4.653-4.655 4.66 4.66 0 0 1 4.654-4.654c.606 0 1.179.129 1.71.343L32.059 1.732a16.543 16.543 0 0 0-4.766-.937 1.546 1.546 0 0 0-.326-.04H0s6.649 2.236 6.649 8.996V47H18.72V34.202h7.34c.152.004.302.012.454.012 1.975 0 3.866-.35 5.624-.98L20.774 21.87a4.598 4.598 0 0 1-2.113.515" mask="url(#b)"/>
        </g>
        <g transform="translate(22 3.244)">
            <mask id="d" fill="#fff">
                <use xlink:href="#c"/>
            </mask>
            <path fill="#2B97EF" d="M12.548 23.117L10.11 20.68a6.768 6.768 0 0 0 3.695-6.029 6.77 6.77 0 0 0-3.958-6.155l2.66-2.659a10.213 10.213 0 0 1 4.779 8.651c0 3.63-1.89 6.815-4.738 8.63m-4.841-4.762l-1.03-1.029-.84-.805c.755-.369 1.274-1.12 1.274-1.987 0-.902-.56-1.678-1.364-2.03l.817-.78 1.125-1.127c.322.204.618.446.879.72a4.568 4.568 0 0 1 1.266 3.164 4.586 4.586 0 0 1-2.127 3.874m13.527-3.86c0-5.96-3.121-11.185-7.815-14.145L.905 12.864c.255.573.41 1.2.41 1.865 0 .511-.09 1-.244 1.458l12.416 12.415c4.657-2.967 7.747-8.176 7.747-14.108" mask="url(#d)"/>
        </g>
    </g>
</svg>
