<svg xmlns="http://www.w3.org/2000/svg" width="38" height="33" viewBox="0 0 38 33">
    <g fill="none" fill-rule="evenodd" opacity=".4">
        <path stroke="#2B97EF" stroke-width="1.5" d="M.75.75h36.5v31.5H.75z"/>
        <path fill="#FFB718" stroke="#2B97EF" stroke-linejoin="round" stroke-width="1.5" d="M1.48 9.5h35.553"/>
        <path fill="#FFB718" stroke="#2B97EF" stroke-linecap="round" stroke-linejoin="round" stroke-width="1.5" d="M1.48 27.5h29.88M9.896 5.5h10.09"/>
        <path stroke="#2B97EF" stroke-linejoin="round" stroke-width="1.5" d="M24 3h10v4H24z"/>
        <path fill="#FFF" stroke="#2B97EF" stroke-linecap="round" stroke-linejoin="round" stroke-width="1.5" d="M15.554 18.58a1.1 1.1 0 0 1-1.536-.215c-.396-.426-.8-.855-1.372-1.458l-1-1.053-.56-.591.636-.51c3.863-3.094 9.978-3.235 14.199-.034l.664.504-.572.608-.676.718-.674.714c-.442.467-.825.868-1.195 1.249l-.108.111-.143.06c-.338.14-.721.114-1.036-.07a6.689 6.689 0 0 0-3.48-.901 6.392 6.392 0 0 0-3.147.868z"/>
        <path fill="#FFF" stroke="#2B97EF" stroke-linecap="square" stroke-linejoin="round" stroke-width="1.5" d="M14.088 19.683a6.732 6.732 0 0 0-1.923 4.061l-.07.673H6.767l.058-.803a12.179 12.179 0 0 1 3.58-7.788l.547-.54.526.56.578.614.03.033 2.017 2.147.497.529-.512.514z"/>
        <path fill="#FFF" stroke="#2B97EF" stroke-linecap="round" stroke-linejoin="round" stroke-width="1.5" d="M26.384 15.594h.63l.218.216a12.195 12.195 0 0 1 3.594 7.789l.059.805h-5.326l-.071-.67a6.747 6.747 0 0 0-1.958-4.081l-.523-.518.508-.533.757-.794.026-.027 1.865-1.954.221-.233z"/>
        <path fill="#2B97EF" d="M34.086 27a.7.7 0 0 1 .522.227.713.713 0 0 1 .186.541.759.759 0 0 1-.736.727.774.774 0 0 1-.737-.732.743.743 0 0 1 .218-.55.73.73 0 0 1 .547-.212zM6.737 5.978a.713.713 0 0 1-.508-.225.725.725 0 0 1-.196-.522.74.74 0 0 1 .367-.65.728.728 0 0 1 .742.006.74.74 0 0 1 .357.655c0 .201-.08.393-.224.532a.725.725 0 0 1-.537.204h-.001z"/>
    </g>
</svg>
