<?xml version="1.0" encoding="UTF-8"?>
<svg width="35px" height="35px" viewBox="0 0 35 35" version="1.1" xmlns="http://www.w3.org/2000/svg" xmlns:xlink="http://www.w3.org/1999/xlink">
    <!-- Generator: Sketch 55 (78076) - https://sketchapp.com -->
    <title>Ico-Reports-on</title>
    <desc>Created with Sketch.</desc>
    <g id="Dashboard" stroke="none" stroke-width="1" fill="none" fill-rule="evenodd">
        <g id="Iconos" transform="translate(-385.000000, -293.000000)">
            <g id="Ico-Reports-on" transform="translate(386.000000, 293.500000)">
                <g>
                    <path d="M33,18.25 L33,29.8 C33,31.9999999 31.8999999,33.1 29.7,33.1 C27.5000001,33.1 26.4,31.9999999 26.4,29.8 L26.4,0.922077922 L0,0.922077922 L0,28.15 C0,31.45 1.65,33.1 4.95,33.1 C8.25,33.1 16.5,33.1 29.7,33.1 M6.6,11.9296961 L8.25,11.9296961 M14.85,11.9296961 L19.8,11.9296961 M6.6,7.27281906 L19.8,7.27281906" id="Shape" stroke="#2966FF" stroke-width="1.5" stroke-linecap="round"></path>
                    <polyline id="Path-3" stroke="#FFB718" stroke-width="1.5" stroke-linecap="square" stroke-linejoin="round" points="13 16.5 13 22.6103896 18.038961 19.3051948"></polyline>
                    <circle id="Oval" stroke="#FFB718" stroke-width="1.5" stroke-linecap="square" stroke-linejoin="round" cx="12.5" cy="22.5" r="6.5"></circle>
                    <path d="M8,26.5 L13.2,22.5" id="Path-4" stroke="#FFB718" stroke-width="1.5"></path>
                </g>
            </g>
        </g>
    </g>
</svg>