<svg id="_x33_0" enable-background="new 0 0 64 64" height="512" viewBox="0 0 64 64" width="512" xmlns="http://www.w3.org/2000/svg"><g><g><g><path d="m62 5v5h-6v-5c0-1.66 1.34-3 3-3 .83 0 1.58.34 2.12.88s.88 1.29.88 2.12z" fill="#f0d0b4"/></g><g><path d="m50 33c0 1.66 1.34 3 3 3h-9v-7c0-1.66 1.34-3 3-3 .83 0 1.58.34 2.12.88s.88 1.29.88 2.12z" fill="#f0d0b4"/></g><g><path d="m30 22v-17c0-1.66 1.34-3 3-3h26c-1.66 0-3 1.34-3 3v5 12h-3-4-2-14z" fill="#e6e9ed"/></g><g><path d="m56 22v11c0 .83-.34 1.58-.88 2.12s-1.29.88-2.12.88c-1.66 0-3-1.34-3-3v-4c0-.83-.34-1.58-.88-2.12s-1.29-.88-2.12-.88h-17v-4h3 14 2 4z" fill="#e6e9ed"/></g><g><path d="m34 6h6v8h-6z" fill="#ff826e"/></g><g><path d="m44 36v12h-14c0-3.86-1.57-7.36-4.1-9.9-2.09-2.08-4.84-3.52-7.9-3.96v-5.14c0-1.66 1.34-3 3-3h9 17c-1.66 0-3 1.34-3 3z" fill="#e6e9ed"/></g><g><path d="m61.11 52.55c.54.28.89.84.89 1.45s-.35 1.17-.89 1.45l-9.11 4.55v-6-6z" fill="#aab2bd"/></g><g><path d="m52 60h-28.78c.98-.59 1.88-1.3 2.68-2.1 1.12-1.13 2.06-2.45 2.75-3.9h23.35z" fill="#b4dd7f"/></g><g><path d="m52 48v6h-23.35c.87-1.82 1.35-3.86 1.35-6h14z" fill="#ff826e"/></g><g><circle cx="16" cy="48" fill="#ffc729" r="14"/></g><g><path d="m23.07 40.93c1.81 1.81 2.93 4.31 2.93 7.07s-1.12 5.26-2.93 7.07-4.31 2.93-7.07 2.93-5.26-1.12-7.07-2.93-2.93-4.31-2.93-7.07 1.12-5.26 2.93-7.07 4.31-2.93 7.07-2.93 5.26 1.12 7.07 2.93z" fill="#fcd770"/></g><g><path d="m18 20c0 3-2 6-6 6h-2s0-6 8-6z" fill="#b4dd7f"/></g><g><path d="m2 20c8 0 8 6 8 6h-2c-4 0-6-3-6-6z" fill="#b4dd7f"/></g><g><path d="m10 8s3 2 3 6c0 3-3 4-3 4s-3-1-3-4c0-4 3-6 3-6z" fill="#a0d468"/></g></g><g><path d="m17 43.184v-2.184h-2v2h-2v3c0 1.654 1.346 3 3 3 .552 0 1 .448 1 1v1h-1c-.552 0-1-.448-1-1v-1h-2v1c0 1.302.839 2.402 2 2.816v2.184h2v-2h2v-3c0-1.654-1.346-3-3-3-.552 0-1-.448-1-1v-1h1c.552 0 1 .448 1 1v1h2v-1c0-1.302-.839-2.402-2-2.816z"/><path d="m53 37c2.206 0 4-1.794 4-4v-22h6v-6c0-2.206-1.794-4-4-4h-26c-2.206 0-4 1.794-4 4v20h-8c-2.206 0-4 1.794-4 4v4.051c-.332-.022-.662-.051-1-.051-1.755 0-3.433.319-5 .875v-6.875h1c4.596 0 7-3.521 7-7v-1h-1c-3.562 0-5.699 1.114-7 2.451v-2.804c1.067-.552 3-1.925 3-4.647 0-4.483-3.305-6.738-3.445-6.832l-.555-.37-.555.37c-.14.094-3.445 2.349-3.445 6.832 0 2.722 1.933 4.096 3 4.647v2.804c-1.301-1.337-3.438-2.451-7-2.451h-1v1c0 3.479 2.404 7 7 7h1v7.743c-4.752 2.52-8 7.513-8 13.257 0 8.271 6.729 15 15 15 2.713 0 5.253-.735 7.452-2h28.785l9.317-4.658c.891-.447 1.446-1.345 1.446-2.342s-.555-1.895-1.447-2.342l-9.317-4.658h-7.236v-10zm-45-12c-2.941 0-4.511-1.899-4.902-3.957 4.158.337 5.387 2.589 5.751 3.957zm8.901-3.957c-.39 2.058-1.961 3.957-4.901 3.957h-.846c.367-1.35 1.6-3.616 5.747-3.957zm-8.901-7.043c0-2.413 1.246-3.977 1.999-4.701.751.725 2.001 2.293 2.001 4.701 0 1.738-1.36 2.604-2 2.916-.64-.312-2-1.178-2-2.916zm37 15c0-1.103.897-2 2-2s2 .897 2 2v4c0 .732.212 1.409.556 2h-4.556zm16-24v4h-4v-4c0-1.103.897-2 2-2s2 .897 2 2zm-30 0c0-1.103.897-2 2-2h22.556c-.344.591-.556 1.268-.556 2v28c0 1.103-.897 2-2 2s-2-.897-2-2v-4c0-2.206-1.794-4-4-4h-16zm20 44v4h-20.875c.449-1.265.732-2.605.824-4zm2 .618 4 2v4.763l-4 2zm-27.139 6.829-1.413-1.413c1.391-1.667 2.294-3.751 2.501-6.034h2c-.217 2.833-1.341 5.411-3.088 7.447zm-.861-8.447c0 4.963-4.037 9-9 9s-9-4.037-9-9 4.037-9 9-9 9 4.037 9 9zm-10-10.949c-2.283.207-4.366 1.111-6.034 2.501l-1.413-1.413c2.036-1.747 4.615-2.871 7.447-3.088zm-7.448 3.915c-1.391 1.668-2.294 3.751-2.501 6.034h-2c.217-2.833 1.341-5.411 3.088-7.447zm-2.501 8.034c.207 2.283 1.111 4.366 2.501 6.034l-1.413 1.413c-1.747-2.036-2.871-4.614-3.088-7.447zm3.915 7.448c1.667 1.391 3.751 2.294 6.034 2.501v2c-2.833-.217-5.411-1.341-7.447-3.088zm8.034 2.501c2.283-.207 4.366-1.111 6.034-2.501l1.413 1.413c-2.036 1.747-4.615 2.871-7.447 3.088zm9.949-11.949c-.207-2.283-1.111-4.366-2.501-6.034l1.413-1.413c1.747 2.036 2.871 4.615 3.088 7.447zm-3.915-7.448c-1.667-1.391-3.751-2.294-6.034-2.501v-2c2.833.217 5.411 1.341 7.447 3.088zm6.223 15.448h21.743v4h-24.836c1.241-1.148 2.294-2.494 3.093-4zm31.743-1c0 .235-.131.447-.342.553l-1.658.829v-2.763l1.657.829c.212.105.343.317.343.552zm-30.051-7c-.451-6.794-5.429-12.369-11.949-13.698v-4.302c0-1.103.897-2 2-2h22.556c-.344.591-.556 1.268-.556 2v18z"/><path d="m31 29h10v2h-10z"/><path d="m31 33h10v2h-10z"/><path d="m31 37h10v2h-10z"/><path d="m39 41h2v2h-2z"/><path d="m35 41h2v2h-2z"/><path d="m41 5h-8v10h8zm-2 8h-4v-6h4z"/><path d="m43 5h4v2h-4z"/><path d="m49 5h4v2h-4z"/><path d="m43 9h10v2h-10z"/><path d="m43 13h2v2h-2z"/><path d="m47 13h2v2h-2z"/><path d="m51 13h2v2h-2z"/><path d="m33 17h4v2h-4z"/><path d="m39 17h14v2h-14z"/><path d="m33 21h14v2h-14z"/><path d="m49 21h4v2h-4z"/></g></g></svg>