<svg id="Capa_1" enable-background="new 0 0 512 512" height="512" viewBox="0 0 512 512" width="512" xmlns="http://www.w3.org/2000/svg"><circle cx="391.003" cy="120.997" fill="#ffce71" r="113.497"/><circle cx="391.003" cy="120.998" fill="#fc8a3d" r="68.498"/><path d="m357.408 12.576c-46.233 14.355-79.903 57.53-79.903 108.422s33.67 94.067 79.903 108.422c-22.289-31.047-34.903-68.791-34.903-108.422s12.614-77.375 34.903-108.422z" fill="#ffb357"/><path d="m504.5 294.495c0-16.569-13.431-30-30-30h-166.995c-16.568 0-30 13.431-30 30 0 16.568 13.431 30 30 30h-20c-16.569 0-30 13.431-30 30 0 16.568 13.431 30 30 30h20c-16.568 0-30 13.431-30 30 0 16.568 13.431 30 30 30-16.568 0-30 13.431-30 30 0 16.568 13.431 30 30 30h166.995c16.569 0 30-13.432 30-30 0-16.569-13.431-30-30-30 16.569 0 30-13.432 30-30 0-16.569-13.431-30-30-30h-20c16.569 0 30-13.432 30-30 0-16.569-13.431-30-30-30h20c16.569 0 30-13.432 30-30z" fill="#ffce71"/><path d="m377.505 384.495h-2.177c-16.115 0-30.386-13.167-30.251-30.327.126-16.321 13.926-29.671 30.247-29.673h2.176c-16.566-16.569-16.565-43.43.002-59.998l.002-.002h-69.376c-16.346 0-30.164 12.816-30.613 29.156-.465 16.954 13.14 30.844 29.988 30.844h-19.376c-16.346 0-30.164 12.816-30.613 29.156-.465 16.954 13.14 30.844 29.988 30.844h20c-16.568 0-30 13.431-30 30 0 16.568 13.431 30 30 30-16.848 0-30.453 13.889-29.988 30.842.448 16.341 14.266 29.158 30.612 29.158h69.374c-16.566-16.569-16.565-43.43.002-59.998l.002-.002c-.002 0-.003 0-.005 0-16.566-16.569-16.565-43.43.002-59.998z" fill="#ffb357"/><path d="m224.495 384.495h-166.995c-16.569 0-30 13.431-30 30 0 16.568 13.431 30 30 30h-20c-16.569 0-30 13.431-30 30 0 16.568 13.431 30 30 30h166.995c16.568 0 30-13.432 30-30 0-16.569-13.431-30-30-30h20c16.569 0 30-13.432 30-30 0-16.569-13.431-30-30-30z" fill="#ffce71"/><path d="m147.5 384.495h-89.376c-16.346 0-30.164 12.816-30.613 29.156-.465 16.954 13.139 30.844 29.988 30.844h-19.375c-16.346 0-30.164 12.816-30.613 29.156-.465 16.954 13.139 30.844 29.988 30.844h90l-.518-.533c-6.488-20.119-1.098-43.311 20.518-59.467-16.567-16.568-16.567-43.432.001-60z" fill="#ffb357"/><path d="m250.25 175.996h-50.382c-8.284 0-15 6.716-15 15s6.716 15 15 15h14.169l-124.393 124.394c-5.858 5.857-5.858 15.355 0 21.213 2.929 2.929 6.768 4.394 10.606 4.394s7.678-1.465 10.606-4.394l124.394-124.394v14.17c0 8.284 6.716 15 15 15s15-6.716 15-15v-50.383c0-8.284-6.716-15-15-15z" fill="#00ce8e"/><path d="m391.003 241.995c66.718 0 120.997-54.279 120.997-120.998 0-66.718-54.279-120.997-120.997-120.997-66.719 0-120.998 54.279-120.998 120.997 0 66.719 54.279 120.998 120.998 120.998zm0-226.995c58.447 0 105.997 47.55 105.997 105.997s-47.55 105.998-105.997 105.998-105.998-47.551-105.998-105.998 47.551-105.997 105.998-105.997z"/><path d="m391.003 196.995c41.905 0 75.997-34.092 75.997-75.997s-34.092-75.998-75.997-75.998c-13.097 0-26.021 3.403-37.377 9.841-3.603 2.043-4.868 6.62-2.825 10.224 2.043 3.602 6.62 4.867 10.224 2.825 9.104-5.161 19.471-7.89 29.979-7.89 33.633 0 60.996 27.363 60.996 60.998 0 33.634-27.363 60.997-60.997 60.997-33.635 0-60.998-27.363-60.998-60.997 0-12.757 3.914-24.982 11.319-35.354 2.407-3.371 1.626-8.056-1.745-10.462-3.372-2.407-8.057-1.624-10.462 1.745-9.232 12.931-14.112 28.171-14.112 44.071 0 41.905 34.093 75.997 75.998 75.997z"/><path d="m339.502 116.732v10c0 4.142 3.358 7.5 7.5 7.5s7.5-3.358 7.5-7.5v-10c0-4.142-3.358-7.5-7.5-7.5s-7.5 3.358-7.5 7.5z"/><path d="m442.502 126.732v-10c0-4.142-3.358-7.5-7.5-7.5s-7.5 3.358-7.5 7.5v10c0 4.142 3.358 7.5 7.5 7.5s7.5-3.358 7.5-7.5z"/><path d="m391.502 142.232c9.687 0 18.623-5.599 22.766-14.265 1.787-3.737.206-8.215-3.531-10.001-3.737-1.788-8.215-.206-10.001 3.531-1.666 3.484-5.291 5.735-9.234 5.735s-7.568-2.251-9.234-5.735c-1.787-3.737-6.266-5.318-10.001-3.531-3.737 1.787-5.318 6.265-3.531 10.001 4.144 8.666 13.08 14.265 22.766 14.265z"/><path d="m512 294.5c0-20.678-16.822-37.5-37.5-37.5h-166.995c-20.678 0-37.5 16.822-37.5 37.5 0 8.947 3.154 17.169 8.402 23.622-16.295 4.077-28.402 18.838-28.402 36.378s12.107 32.302 28.402 36.378c-5.249 6.453-8.402 14.674-8.402 23.622 0 12.254 5.909 23.153 15.026 30-9.117 6.847-15.026 17.746-15.026 30 0 20.678 16.822 37.5 37.5 37.5h166.995c20.678 0 37.5-16.822 37.5-37.5 0-12.254-5.909-23.153-15.026-30 9.117-6.847 15.026-17.746 15.026-30 0-17.541-12.107-32.302-28.402-36.378 5.249-6.453 8.402-14.674 8.402-23.622s-3.154-17.169-8.402-23.622c16.295-4.076 28.402-18.837 28.402-36.378zm-15 180c0 12.406-10.094 22.5-22.5 22.5h-166.995c-12.407 0-22.5-10.094-22.5-22.5s10.093-22.5 22.5-22.5h166.995c12.406 0 22.5 10.094 22.5 22.5zm0-60c0 12.406-10.094 22.5-22.5 22.5h-166.995c-12.407 0-22.5-10.094-22.5-22.5s10.093-22.5 22.5-22.5h20c4.143 0 7.5-3.357 7.5-7.5s-3.357-7.5-7.5-7.5h-40c-12.407 0-22.5-10.094-22.5-22.5s10.093-22.5 22.5-22.5h20 46 30 70.995c12.406 0 22.5 10.094 22.5 22.5s-10.094 22.5-22.5 22.5h-96.995c-4.143 0-7.5 3.357-7.5 7.5s3.357 7.5 7.5 7.5h96.995 20c12.406 0 22.5 10.094 22.5 22.5zm-22.5-97.5h-20-70.995-30-46c-12.407 0-22.5-10.094-22.5-22.5s10.093-22.5 22.5-22.5h166.995c12.406 0 22.5 10.094 22.5 22.5s-10.094 22.5-22.5 22.5z"/><path d="m224.495 377h-166.995c-20.678 0-37.5 16.822-37.5 37.5 0 8.947 3.154 17.169 8.402 23.622-16.295 4.076-28.402 18.837-28.402 36.378 0 20.678 16.822 37.5 37.5 37.5h166.995c20.678 0 37.5-16.822 37.5-37.5 0-8.947-3.154-17.169-8.402-23.622 16.295-4.077 28.402-18.838 28.402-36.378 0-20.678-16.822-37.5-37.5-37.5zm0 60h-20-90c-4.142 0-7.5 3.357-7.5 7.5s3.358 7.5 7.5 7.5h90c12.407 0 22.5 10.094 22.5 22.5s-10.093 22.5-22.5 22.5h-166.995c-12.407 0-22.5-10.094-22.5-22.5s10.093-22.5 22.5-22.5h46.995c4.142 0 7.5-3.357 7.5-7.5s-3.358-7.5-7.5-7.5h-26.995c-12.407 0-22.5-10.094-22.5-22.5s10.093-22.5 22.5-22.5h166.995c12.407 0 22.5 10.094 22.5 22.5s-10.093 22.5-22.5 22.5z"/><path d="m116.16 356.906 111.885-111.885c1.746 10.681 11.039 18.857 22.206 18.857 12.407 0 22.5-10.094 22.5-22.5v-50.383c0-12.406-10.093-22.5-22.5-22.5h-50.382c-12.407 0-22.5 10.094-22.5 22.5 0 11.167 8.176 20.46 18.857 22.205l-111.886 111.886c-8.794 8.795-8.794 23.025 0 31.82 8.795 8.794 23.026 8.793 31.82 0zm-21.213-21.213 124.393-124.393c2.145-2.146 2.787-5.371 1.626-8.174s-3.896-4.63-6.929-4.63h-14.169c-4.136 0-7.5-3.364-7.5-7.5s3.364-7.5 7.5-7.5h50.382c4.135 0 7.5 3.364 7.5 7.5v50.383c0 4.136-3.365 7.5-7.5 7.5-4.136 0-7.5-3.364-7.5-7.5v-14.17c0-3.033-1.827-5.769-4.63-6.929-2.8-1.162-6.028-.52-8.173 1.625l-124.394 124.394c-2.931 2.932-7.674 2.932-10.606 0-2.932-2.931-2.931-7.675 0-10.606z"/></svg>