<svg height="512pt" viewBox="0 0 512 512.00014" width="512pt" xmlns="http://www.w3.org/2000/svg"><path d="m238.933594 34.132812h-42.667969v25.601563c0 4.710937 3.820313 8.53125 8.535156 8.53125h59.734375c4.710938 0 8.53125-3.820313 8.53125-8.53125v-17.066406c0-4.714844-3.820312-8.535157-8.53125-8.535157zm0 0" fill="#c81e1e"/><path d="m170.667969 8.535156h59.730469c4.714843 0 8.535156 3.820313 8.535156 8.53125v17.066406c0 4.714844-3.820313 8.535157-8.535156 8.535157h-68.265626v-25.601563c0-4.710937 3.820313-8.53125 8.535157-8.53125zm0 0" fill="#f44335"/><path d="m162.132812 102.398438c-51.839843 0-93.867187 42.027343-93.867187 93.867187h109.367187c18.253907-20.378906 42.546876-34.390625 69.328126-39.984375-15.457032-32.875-48.503907-53.863281-84.828126-53.882812zm0 0" fill="#9e9e9e"/><g fill="#707070"><path d="m119.464844 230.398438h46.933594v85.335937h-46.933594zm0 0"/><path d="m51.199219 230.398438h34.132812v85.335937h-34.132812zm0 0"/><path d="m211.105469 169.585938c-4.109375-27.75-15.785157-67.1875-48.972657-67.1875-51.199218 0-51.199218 93.867187-51.199218 93.867187h100.171875zm0 0"/></g><path d="m149.667969 315.734375h-107c-4.714844 0-8.535157 3.820313-8.535157 8.53125v17.066406c0 4.714844 3.820313 8.535157 8.535157 8.535157h122.105469c-6.6875-10.574219-11.777344-22.074219-15.105469-34.132813zm0 0" fill="#7f8e94"/><path d="m177.632812 196.265625h-134.964843c-4.714844 0-8.535157 3.820313-8.535157 8.535156v17.066407c0 4.710937 3.820313 8.53125 8.535157 8.53125h113.050781c5.433594-12.472657 12.832031-23.996094 21.914062-34.132813zm0 0" fill="#7f8e94"/><path d="m85.332031 230.398438h34.132813v85.335937h-34.132813zm0 0" fill="#cfd8dc"/><path d="m200.535156 358.398438h-192c-4.714844 0-8.535156-3.820313-8.535156-8.53125 0-4.714844 3.820312-8.535157 8.535156-8.535157h192c4.710938 0 8.53125 3.820313 8.53125 8.535157 0 4.710937-3.820312 8.53125-8.53125 8.53125zm0 0" fill="#4c8056"/><path d="m401.066406 281.601562c-.027344 70.679688-57.316406 127.972657-128 128-4.191406.03125-8.378906-.195312-12.542968-.683593-.171876 0-.34375.085937-.511719 0-65.296875-6.6875-114.949219-61.683594-114.949219-127.316407 0-65.636718 49.652344-120.632812 114.949219-127.320312.167969-.082031.339843 0 .511719 0 4.164062-.484375 8.351562-.714844 12.542968-.679688 70.683594.023438 127.972656 57.316407 128 128zm0 0" fill="#283593"/><path d="m375.464844 281.601562c-.050782 65.613282-49.675782 120.578126-114.941406 127.316407-.171876 0-.34375.085937-.511719 0-65.296875-6.6875-114.949219-61.683594-114.949219-127.316407 0-65.636718 49.652344-120.632812 114.949219-127.320312.167969-.082031.339843 0 .511719 0 65.265624 6.738281 114.890624 61.703125 114.941406 127.320312zm0 0" fill="#3f51b5"/><path d="m366.933594 281.601562c.015625 24.898438-9.871094 48.78125-27.476563 66.386719-17.605469 17.609375-41.492187 27.492188-66.390625 27.476563-4.285156.035156-8.566406-.277344-12.800781-.9375-46.449219-6.363282-81.066406-46.042969-81.066406-92.925782 0-46.882812 34.617187-86.566406 81.066406-92.929687 4.234375-.65625 8.515625-.972656 12.800781-.9375 24.898438-.015625 48.785156 9.871094 66.390625 27.476563 17.605469 17.605468 27.492188 41.488281 27.476563 66.390624zm0 0" fill="#0377bc"/><path d="m341.332031 281.601562c0-51.324218-36.292969-92.929687-81.066406-92.929687-44.769531 0-81.066406 41.605469-81.066406 92.929687 0 51.320313 36.296875 92.925782 81.066406 92.925782 44.773437 0 81.066406-41.605469 81.066406-92.925782zm0 0" fill="#02a9f4"/><path d="m453.71875 417.535156-36.183594 36.183594-18.089844-18.09375c-1.597656-1.59375-2.496093-3.757812-2.496093-6.015625s.898437-4.421875 2.496093-6.015625l24.148438-24.148438c1.59375-1.597656 3.757812-2.496093 6.015625-2.496093s4.421875.898437 6.015625 2.496093zm0 0" fill="#545c60"/><path d="m432.640625 430.078125-19.371094 19.371094-13.824219-13.824219c-1.597656-1.59375-2.496093-3.757812-2.496093-6.015625s.898437-4.421875 2.496093-6.015625l13.054688-13.054688c.765625.355469 1.460938.84375 2.050781 1.449219zm0 0" fill="#7f8e94"/><path d="m495.957031 495.957031c-10 9.972657-26.183593 9.972657-36.179687 0l-42.242188-42.238281 36.183594-36.183594 42.238281 42.242188c9.984375 9.992187 9.984375 26.183594 0 36.179687zm0 0" fill="#283593"/><path d="m482.816406 502.953125c-8.367187 1.671875-17.015625-.953125-23.039062-6.996094l-42.242188-42.238281 19.457032-19.457031 40.449218 40.449219c7.421875 7.417968 9.550782 18.617187 5.375 28.242187zm0 0" fill="#3f51b5"/><path d="m375.289062 399.425781 24.136719-24.136719 24.136719 24.136719-24.136719 24.136719zm0 0" fill="#cfd8dc"/><path d="m399.425781 363.21875-16.222656-16.375c-8.796875 14.832031-20.492187 27.734375-34.390625 37.941406l14.410156 14.640625c1.601563 1.597657 3.769532 2.5 6.035156 2.5 2.261719 0 4.433594-.902343 6.035157-2.5l24.132812-24.136719c1.601563-1.601562 2.5-3.769531 2.5-6.035156 0-2.261718-.898437-4.433594-2.5-6.035156zm0 0" fill="#545c60"/><path d="m358.398438 8.535156h136.535156c4.710937 0 8.53125 3.820313 8.53125 8.53125v119.46875c0 4.710938-3.820313 8.53125-8.53125 8.53125h-136.535156c-4.710938 0-8.53125-3.820312-8.53125-8.53125v-119.46875c0-4.710937 3.820312-8.53125 8.53125-8.53125zm0 0" fill="#fec108"/><path d="m358.398438 8.535156h110.933593c4.714844 0 8.535157 3.820313 8.535157 8.53125v119.46875c0 4.710938-3.820313 8.53125-8.535157 8.53125h-110.933593c-4.710938 0-8.53125-3.820312-8.53125-8.53125v-119.46875c0-4.710937 3.820312-8.53125 8.53125-8.53125zm0 0" fill="#ffdc00"/><path d="m315.734375 264.535156c-.007813 23.558594-19.105469 42.65625-42.667969 42.664063-4.332031-.011719-8.644531-.644531-12.800781-1.875-17.78125-5.632813-29.863281-22.136719-29.863281-40.789063 0-18.65625 12.082031-35.15625 29.863281-40.792968 4.15625-1.230469 8.46875-1.863282 12.800781-1.875 23.5625.007812 42.660156 19.105468 42.667969 42.667968zm0 0" fill="#dfc49c"/><path d="m290.132812 264.535156c0-22.527344-13.371093-40.792968-29.867187-40.792968-16.492187 0-29.867187 18.265624-29.867187 40.792968s13.375 40.789063 29.867187 40.789063c16.496094 0 29.867187-18.261719 29.867187-40.789063zm0 0" fill="#ffe0b2"/><path d="m341.417969 345.855469c-11.140625 11.894531-25.203125 20.660156-40.789063 25.429687-8.921875 2.785156-18.214844 4.195313-27.5625 4.179688-25.898437.015625-50.648437-10.703125-68.351562-29.609375l.085937-21.589844c.015625-9.050781 3.605469-17.726563 9.984375-24.148437.597656-.597657 1.277344-1.195313 1.960938-1.792969 6.175781-5.296875 14.050781-8.203125 22.1875-8.191407 2.277344 3.042969 4.976562 5.746094 8.019531 8.023438 18.03125 14.164062 44.058594 11.402344 58.710937-6.230469.558594-.554687 1.074219-1.152343 1.535157-1.792969 9.054687-.003906 17.738281 3.59375 24.140625 9.996094s9.996094 15.085938 9.992187 24.136719zm0 0" fill="#00695c"/><path d="m317.441406 354.816406c-5.0625 6.015625-10.695312 11.53125-16.8125 16.46875-8.921875 2.785156-18.214844 4.195313-27.5625 4.179688-25.898437.015625-50.648437-10.703125-68.351562-29.609375l.085937-21.589844c.015625-9.050781 3.605469-17.726563 9.984375-24.148437.597656-.597657 1.277344-1.195313 1.960938-1.792969 4.765625 1.574219 9.746094 2.382812 14.761718 2.390625 5.253907-.015625 10.46875-.882813 15.445313-2.558594 18.03125 14.164062 44.058594 11.402344 58.710937-6.230469 7.605469 9.179688 11.71875 20.757813 11.605469 32.683594zm0 0" fill="#009688"/><path d="m128 443.734375c.011719 15.84375-6.277344 31.042969-17.484375 42.25-11.203125 11.203125-26.402344 17.492187-42.25 17.480469-4.300781-.011719-8.589844-.46875-12.800781-1.363282-27.40625-6.023437-46.929688-30.308593-46.929688-58.367187 0-28.0625 19.523438-52.34375 46.929688-58.367187 4.210937-.894532 8.5-1.351563 12.800781-1.367188 15.847656-.011719 31.046875 6.277344 42.25 17.484375 11.207031 11.203125 17.496094 26.402344 17.484375 42.25zm0 0" fill="#6a1b9a"/><path d="m102.398438 443.734375c.003906 28.0625-19.523438 52.34375-46.933594 58.367187-27.40625-6.023437-46.929688-30.308593-46.929688-58.367187 0-28.0625 19.523438-52.34375 46.929688-58.367187 27.410156 6.019531 46.9375 30.304687 46.933594 58.367187zm0 0" fill="#9d27b0"/><path d="m128 443.734375c.039062 15.847656-6.257812 31.058594-17.492188 42.238281l-42.242187-42.238281v-59.734375c15.847656-.011719 31.046875 6.277344 42.25 17.484375 11.207031 11.203125 17.496094 26.402344 17.484375 42.25zm0 0" fill="#bb193b"/><path d="m102.398438 443.734375c.027343 9.558594-2.257813 18.984375-6.65625 27.476563l-27.476563-27.476563v-53.933594c20.875 9.835938 34.179687 30.855469 34.132813 53.933594zm0 0" fill="#ef314c"/><path d="m85.332031 324.265625h-34.132812c-4.710938 0-8.53125-3.820313-8.53125-8.53125v-85.335937c0-4.710938 3.820312-8.53125 8.53125-8.53125h34.132812c4.714844 0 8.535157 3.820312 8.535157 8.53125v85.335937c0 4.710937-3.820313 8.53125-8.535157 8.53125zm-25.597656-17.066406h17.066406v-68.265625h-17.066406zm0 0"/><path d="m119.464844 324.265625c-4.710938 0-8.53125-3.820313-8.53125-8.53125v-85.335937c0-4.710938 3.820312-8.53125 8.53125-8.53125 4.714844 0 8.535156 3.820312 8.535156 8.53125v85.335937c0 4.710937-3.820312 8.53125-8.535156 8.53125zm0 0"/><path d="m238.933594 51.199219h-76.800782c-4.710937 0-8.53125-3.820313-8.53125-8.53125v-34.132813c0-4.714844 3.820313-8.535156 8.53125-8.535156h76.800782c4.710937 0 8.53125 3.820312 8.53125 8.535156v34.132813c0 4.710937-3.820313 8.53125-8.53125 8.53125zm-68.265625-17.066407h59.730469v-17.066406h-59.730469zm0 0"/><path d="m273.066406 76.800781h-76.800781c-4.710937 0-8.53125-3.820312-8.53125-8.535156v-25.597656c0-4.714844 3.820313-8.535157 8.53125-8.535157h34.132813c0-4.710937 3.820312-8.53125 8.535156-8.53125h34.132812c4.714844 0 8.535156 3.820313 8.535156 8.53125v34.132813c0 4.714844-3.820312 8.535156-8.535156 8.535156zm-68.265625-17.066406h59.734375v-17.066406h-17.070312c0 4.710937-3.820313 8.53125-8.53125 8.53125h-34.132813zm0 0"/><path d="m162.132812 110.933594c-4.710937 0-8.53125-3.820313-8.53125-8.535156v-59.730469c0-4.714844 3.820313-8.535157 8.53125-8.535157 4.714844 0 8.535157 3.820313 8.535157 8.535157v59.730469c0 4.714843-3.820313 8.535156-8.535157 8.535156zm0 0"/><path d="m110.933594 204.800781c-4.714844 0-8.535156-3.820312-8.535156-8.535156 0-4.179687.675781-102.398437 59.734374-102.398437 4.714844 0 8.535157 3.820312 8.535157 8.53125 0 4.714843-3.820313 8.535156-8.535157 8.535156-41.507812 0-42.667968 84.480468-42.667968 85.332031 0 4.714844-3.820313 8.535156-8.53125 8.535156zm0 0"/><path d="m211.089844 178.117188c-4.226563-.003907-7.8125-3.101563-8.429688-7.285157-3.308594-22.375-12.964844-59.898437-40.527344-59.898437-4.710937 0-8.53125-3.820313-8.53125-8.535156 0-4.710938 3.820313-8.53125 8.53125-8.53125 29.925782 0 50.316407 26.453124 57.410157 74.464843.6875 4.664063-2.53125 9.003907-7.191407 9.691407-.417968.058593-.839843.089843-1.261718.09375zm0 0"/><path d="m162.132812 204.800781c-4.710937 0-8.53125-3.820312-8.53125-8.535156v-93.867187c0-4.710938 3.820313-8.53125 8.53125-8.53125 4.714844 0 8.535157 3.820312 8.535157 8.53125v93.867187c0 4.714844-3.820313 8.535156-8.535157 8.535156zm0 0"/><path d="m164.777344 358.398438h-156.242188c-4.714844 0-8.535156-3.820313-8.535156-8.53125 0-4.714844 3.820312-8.535157 8.535156-8.535157h156.242188c4.714844 0 8.535156 3.820313 8.535156 8.535157 0 4.710937-3.820312 8.53125-8.535156 8.53125zm0 0"/><path d="m273.066406 418.132812c-75.40625 0-136.53125-61.128906-136.53125-136.53125 0-75.40625 61.125-136.535156 136.53125-136.535156s136.535156 61.128906 136.535156 136.535156c-.085937 75.367188-61.164062 136.445313-136.535156 136.53125zm0-256c-65.980468 0-119.464844 53.488282-119.464844 119.46875 0 65.976563 53.484376 119.464844 119.464844 119.464844 65.980469 0 119.46875-53.488281 119.46875-119.464844-.074218-65.949218-53.519531-119.394531-119.46875-119.46875zm0 0"/><path d="m273.066406 384c-56.554687 0-102.398437-45.847656-102.398437-102.398438 0-56.554687 45.84375-102.402343 102.398437-102.402343 56.554688 0 102.398438 45.847656 102.398438 102.402343-.058594 56.527344-45.871094 102.335938-102.398438 102.398438zm0-187.734375c-47.128906 0-85.332031 38.207031-85.332031 85.335937 0 47.125 38.203125 85.332032 85.332031 85.332032s85.332032-38.207032 85.332032-85.332032c-.054688-47.105468-38.226563-85.28125-85.332032-85.335937zm0 0"/><path d="m477.867188 512c-9.058594.027344-17.75-3.574219-24.132813-10l-60.34375-60.34375c-3.199219-3.199219-5-7.539062-5-12.066406 0-4.523438 1.800781-8.867188 5-12.066406l24.132813-24.132813c3.195312-3.210937 7.539062-5.011719 12.070312-5h.015625c4.527344-.011719 8.871094 1.792969 12.058594 5.007813l60.328125 60.332031c6.402344 6.398437 10 15.082031 10 24.132812 0 9.054688-3.597656 17.734375-10 24.132813-6.382813 6.425781-15.070313 10.027344-24.128906 10.003906zm-48.273438-106.542969-24.136719 24.136719 60.34375 60.339844c6.75 6.449218 17.382813 6.449218 24.132813 0 3.203125-3.199219 5-7.539063 5-12.066406 0-4.527344-1.796875-8.867188-5-12.066407zm0 0"/><path d="m399.425781 432.089844c-2.265625.003906-4.4375-.894532-6.035156-2.496094l-24.132813-24.136719c-1.601562-1.597656-2.5-3.769531-2.5-6.03125 0-2.265625.898438-4.433593 2.5-6.035156l24.132813-24.132813c1.601563-1.601562 3.769531-2.5 6.035156-2.5 2.261719 0 4.433594.898438 6.03125 2.5l24.136719 24.132813c3.328125 3.332031 3.328125 8.734375 0 12.066406l-24.136719 24.136719c-1.597656 1.601562-3.769531 2.5-6.03125 2.496094zm-12.066406-32.664063 12.066406 12.066407 12.066407-12.066407-12.066407-12.066406zm0 0"/><path d="m417.523438 462.265625c-3.449219 0-6.5625-2.078125-7.882813-5.265625-1.320313-3.191406-.589844-6.859375 1.851563-9.300781l36.207031-36.207031c3.347656-3.246094 8.679687-3.207032 11.976562.089843s3.335938 8.628907.089844 11.976563l-36.207031 36.207031c-1.597656 1.605469-3.769532 2.503906-6.035156 2.5zm0 0"/><path d="m369.25 410.453125c-4.527344.007813-8.867188-1.789063-12.066406-4.992187l-14.457032-14.695313c-1.742187-1.765625-2.625-4.199219-2.425781-6.671875.199219-2.46875 1.464844-4.730469 3.464844-6.195312 12.984375-9.511719 23.902344-21.558594 32.101563-35.410157 1.347656-2.269531 3.671874-3.785156 6.289062-4.109375 2.621094-.324218 5.242188.585938 7.101562 2.457032l16.226563 16.375c6.632813 6.675781 6.621094 17.457031-.027344 24.117187l-24.132812 24.132813c-3.199219 3.203124-7.546875 5-12.074219 4.992187zm-7.679688-24.875 7.734376 7.867187 24.089843-24.183593-.023437-.03125-8.777344-8.859375c-6.578125 9.339844-14.316406 17.808594-23.027344 25.203125zm0 0"/><path d="m164.777344 358.398438h-122.109375c-9.421875-.011719-17.054688-7.644532-17.066407-17.066407v-17.066406c.011719-9.417969 7.644532-17.054687 17.066407-17.066406h107c3.835937 0 7.203125 2.558593 8.222656 6.257812 3.109375 11.25 7.859375 21.984375 14.09375 31.851563 1.660156 2.628906 1.761719 5.949218.261719 8.671875-1.5 2.722656-4.359375 4.417969-7.46875 4.417969zm-122.109375-34.132813v17.066406h107.589843c-2.691406-5.523437-5.003906-11.226562-6.925781-17.066406zm0 0"/><path d="m155.714844 238.933594h-113.046875c-9.421875-.011719-17.054688-7.648438-17.066407-17.066406v-17.066407c.011719-9.421875 7.644532-17.054687 17.066407-17.066406h134.964843c3.367188 0 6.421876 1.980469 7.792969 5.054687 1.371094 3.078126.808594 6.671876-1.441406 9.179688-8.476563 9.453125-15.378906 20.207031-20.449219 31.84375-1.359375 3.109375-4.425781 5.121094-7.820312 5.121094zm-113.046875-34.132813v17.066407h107.589843c2.878907-5.921876 6.183594-11.625 9.882813-17.066407zm0 0"/><path d="m177.632812 204.800781h-109.367187c-4.710937 0-8.53125-3.820312-8.53125-8.535156-.027344-47.929687 33.214844-89.460937 79.988281-99.925781 46.773438-10.46875 94.546875 12.929687 114.953125 56.300781 1.113281 2.367187 1.082031 5.109375-.085937 7.449219-1.164063 2.339844-3.339844 4.019531-5.898438 4.550781-24.980468 5.265625-47.644531 18.335937-64.707031 37.328125-1.621094 1.800781-3.929687 2.832031-6.351563 2.832031zm-100.40625-17.066406h96.671876c16.53125-17.371094 37.308593-30.128906 60.277343-37.019531-19.417969-30.792969-56.25-45.859375-91.683593-37.503906-35.4375 8.359374-61.652344 38.296874-65.265626 74.523437zm0 0"/><path d="m494.933594 153.601562h-136.535156c-9.417969-.015624-17.050782-7.648437-17.066407-17.066406v-119.46875c.015625-9.421875 7.648438-17.0546872 17.066407-17.066406h136.535156c9.421875.0117188 17.054687 7.644531 17.066406 17.066406v119.46875c-.011719 9.417969-7.644531 17.050782-17.066406 17.066406zm-136.535156-136.535156v119.46875h136.550781l-.015625-119.46875zm0 0"/><path d="m396.667969 246.5c-3.675781.003906-6.9375-2.347656-8.101563-5.832031-1.160156-3.484375.035156-7.324219 2.976563-9.527344l13.65625-10.234375c2.433593-1.910156 5.710937-2.351562 8.5625-1.15625 2.855469 1.195312 4.835937 3.839844 5.183593 6.914062.347657 3.074219-.996093 6.09375-3.511718 7.894532l-13.660156 10.234375c-1.472657 1.105469-3.261719 1.707031-5.105469 1.707031zm40.957031-30.71875c-3.671875 0-6.933594-2.347656-8.097656-5.832031-1.164063-3.488281.035156-7.324219 2.972656-9.53125l7.828125-5.863281c.980469-.734376 1.789063-1.667969 2.375-2.742188 1.449219-2.703125 4.238281-4.421875 7.300781-4.496094 3.066406-.078125 5.9375 1.496094 7.523438 4.121094 1.585937 2.625 1.636718 5.898438.140625 8.574219-1.757813 3.222656-4.191407 6.023437-7.132813 8.214843l-7.800781 5.84375c-1.472656 1.109376-3.265625 1.710938-5.109375 1.714844zm14.640625-45.113281c-4.710937 0-8.53125-3.820313-8.53125-8.535157v-17.066406c0-4.710937 3.820313-8.53125 8.53125-8.53125 4.714844 0 8.535156 3.820313 8.535156 8.53125v17.066406c0 4.714844-3.820312 8.535157-8.535156 8.535157zm0 0"/><path d="m443.734375 51.199219h-59.734375c-4.710938 0-8.535156-3.820313-8.535156-8.53125 0-4.714844 3.824218-8.535157 8.535156-8.535157h59.734375c4.710937 0 8.53125 3.820313 8.53125 8.535157 0 4.710937-3.820313 8.53125-8.53125 8.53125zm0 0"/><path d="m469.332031 85.332031h-85.332031c-4.710938 0-8.535156-3.820312-8.535156-8.53125 0-4.714843 3.824218-8.535156 8.535156-8.535156h85.332031c4.714844 0 8.535157 3.820313 8.535157 8.535156 0 4.710938-3.820313 8.53125-8.535157 8.53125zm0 0"/><path d="m418.132812 119.464844h-34.132812c-4.710938 0-8.535156-3.820313-8.535156-8.53125 0-4.714844 3.824218-8.535156 8.535156-8.535156h34.132812c4.714844 0 8.535157 3.820312 8.535157 8.535156 0 4.710937-3.820313 8.53125-8.535157 8.53125zm0 0"/><path d="m273.066406 315.734375c-28.277344 0-51.199218-22.925781-51.199218-51.199219 0-28.277344 22.921874-51.203125 51.199218-51.203125s51.199219 22.925781 51.199219 51.203125c-.03125 28.261719-22.933594 51.167969-51.199219 51.199219zm0-85.335937c-18.851562 0-34.132812 15.285156-34.132812 34.136718 0 18.847656 15.28125 34.132813 34.132812 34.132813 18.851563 0 34.132813-15.285157 34.132813-34.132813-.015625-18.84375-15.289063-34.117187-34.132813-34.136718zm0 0"/><path d="m273.066406 349.867188c-4.710937 0-8.53125-3.820313-8.53125-8.535157v-34.132812c0-4.710938 3.820313-8.53125 8.53125-8.53125 4.714844 0 8.535156 3.820312 8.535156 8.53125v34.132812c0 4.714844-3.820312 8.535157-8.535156 8.535157zm0 0"/><path d="m273.066406 384c-28.234375-.0625-55.207031-11.722656-74.589844-32.257812-1.507812-1.59375-2.339843-3.707032-2.328124-5.898438l.117187-21.628906c.050781-23.535156 19.132813-42.59375 42.667969-42.613282 2.675781 0 5.195312 1.253907 6.808594 3.390626 6.445312 8.609374 16.570312 13.675781 27.324218 13.675781s20.878906-5.066407 27.324219-13.675781c1.613281-2.136719 4.132813-3.390626 6.808594-3.390626 23.546875.023438 42.628906 19.097657 42.667969 42.640626l.125 21.597656c.015624 2.195312-.816407 4.308594-2.324219 5.902344-19.390625 20.527343-46.363281 32.191406-74.601563 32.257812zm-59.832031-41.574219c33.199219 32.675781 86.472656 32.675781 119.675781 0l-.109375-18.109375v-.050781c-.015625-12.683594-9.304687-23.449219-21.847656-25.324219-9.695313 10.691406-23.457031 16.792969-37.890625 16.792969s-28.195312-6.101563-37.890625-16.792969c-12.539063 1.878906-21.824219 12.644532-21.839844 25.324219zm0 0"/><path d="m248.683594 452.265625h-17.066406c-4.714844 0-8.535157-3.820313-8.535157-8.53125 0-4.714844 3.820313-8.535156 8.535157-8.535156h17.066406c4.710937 0 8.535156 3.820312 8.535156 8.535156 0 4.710937-3.824219 8.53125-8.535156 8.53125zm-51.199219 0h-17.066406c-4.714844 0-8.535157-3.820313-8.535157-8.53125 0-4.714844 3.820313-8.535156 8.535157-8.535156h17.066406c4.710937 0 8.53125 3.820312 8.53125 8.535156 0 4.710937-3.820313 8.53125-8.53125 8.53125zm-51.199219 0h-17.066406c-4.714844 0-8.535156-3.820313-8.535156-8.53125 0-4.714844 3.820312-8.535156 8.535156-8.535156h17.066406c4.710938 0 8.53125 3.820312 8.53125 8.535156 0 4.710937-3.820312 8.53125-8.53125 8.53125zm126.78125-17.066406c-4.710937 0-8.53125-3.820313-8.53125-8.53125v-17.066407c0-4.714843 3.820313-8.535156 8.53125-8.535156 4.714844 0 8.535156 3.820313 8.535156 8.535156v17.066407c0 4.710937-3.820312 8.53125-8.535156 8.53125zm0 0"/><path d="m68.265625 512c-37.703125 0-68.265625-30.5625-68.265625-68.265625s30.5625-68.269531 68.265625-68.269531 68.269531 30.566406 68.269531 68.269531c-.046875 37.683594-30.582031 68.222656-68.269531 68.265625zm0-119.464844c-28.277344 0-51.199219 22.921875-51.199219 51.199219s22.921875 51.199219 51.199219 51.199219 51.199219-22.921875 51.199219-51.199219c-.027344-28.265625-22.933594-51.171875-51.199219-51.199219zm0 0"/><path d="m110.5 494.5c-2.265625.003906-4.433594-.898438-6.03125-2.5l-42.234375-42.234375c-1.601563-1.597656-2.5-3.769531-2.5-6.03125v-59.734375c0-4.710938 3.820313-8.535156 8.53125-8.535156 4.714844 0 8.535156 3.824218 8.535156 8.535156v56.199219l39.730469 39.734375c2.441406 2.441406 3.171875 6.109375 1.851562 9.296875-1.320312 3.191406-4.433593 5.269531-7.882812 5.269531zm0 0"/></svg>