<svg xmlns="http://www.w3.org/2000/svg" xmlns:xlink="http://www.w3.org/1999/xlink" width="31" height="31" viewBox="0 0 31 31">
  <defs>
    <clipPath id="clip-path">
      <rect id="Rectangle_73" data-name="Rectangle 73" width="31" height="31" fill="#fff" stroke="#707070" stroke-width="1"/>
    </clipPath>
  </defs>
  <g id="Mask_Group_31" data-name="Mask Group 31" clip-path="url(#clip-path)">
    <g id="search">
      <rect id="Rectangle_74" data-name="Rectangle 74" width="3.229" height="4.198" transform="translate(19.695 22.626) rotate(-135)" fill="#344a5e"/>
      <circle id="Ellipse_7" data-name="Ellipse 7" cx="10.01" cy="10.01" r="10.01" transform="translate(1.292 1.292)" fill="#8ad7f8"/>
      <path id="Path_255" data-name="Path 255" d="M19.31,19.31A11.325,11.325,0,0,1,3.294,3.294,11.325,11.325,0,0,1,19.31,19.31ZM5.167,5.167a8.722,8.722,0,1,0,12.335,0A8.693,8.693,0,0,0,5.167,5.167Z" transform="translate(0 0)" fill="#415a6b"/>
      <path id="Path_256" data-name="Path 256" d="M29.84,25.9A63.079,63.079,0,0,1,36.621,31,3.973,3.973,0,0,1,31,36.621a73.7,73.7,0,0,1-5.1-6.781Z" transform="translate(-6.783 -6.783)" fill="#f3705a"/>
      <path id="Path_257" data-name="Path 257" d="M27.215,31.671c-.388-.581-.84-1.163-1.227-1.744l3.94-3.94c.646.452,1.227.84,1.744,1.227Z" transform="translate(-6.806 -6.806)" fill="#f05540"/>
      <path id="Path_258" data-name="Path 258" d="M26.255,30.195l3.94-3.94a1,1,0,1,0-1.421-1.421l-3.94,3.94a1.014,1.014,0,0,0,0,1.421A.914.914,0,0,0,26.255,30.195Z" transform="translate(-6.428 -6.428)" fill="#f3705a"/>
      <ellipse id="Ellipse_8" data-name="Ellipse 8" cx="3.035" cy="1.421" rx="3.035" ry="1.421" transform="translate(8.267 4.65)" fill="#fff"/>
    </g>
  </g>
</svg>
