<svg xmlns="http://www.w3.org/2000/svg" xmlns:xlink="http://www.w3.org/1999/xlink" width="58" height="58" viewBox="0 0 58 58">
  <defs>
    <clipPath id="clip-path">
      <rect id="Rectangle_199" data-name="Rectangle 199" width="58" height="58" transform="translate(709 346)" fill="#fff" stroke="#707070" stroke-width="1"/>
    </clipPath>
  </defs>
  <g id="Mask_Group_76" data-name="Mask Group 76" transform="translate(-709 -346)" clip-path="url(#clip-path)">
    <g id="money_1_" data-name="money (1)" transform="translate(709 346)">
      <path id="Path_373" data-name="Path 373" d="M56.574,32.328l-3.8,3.8L42.283,43.709l-1.854-1.854.038-.048a5.229,5.229,0,1,0-5.744-5.676l-.01.01L31.377,32.8,44.213,19.967Z" fill="#03aa6f"/>
      <path id="Path_374" data-name="Path 374" d="M56.574,39.934,36.607,57.049H30.9L12.836,50.393H.476V39.934H12.836l.666-.285L17.59,37.9l1.9-.818H34.705v5.7H23.3l12.361,5.7,6.627-4.783,10.488-7.578Z" fill="#f5d0c7"/>
      <path id="Path_375" data-name="Path 375" d="M45.164,36.606a5.223,5.223,0,0,1-4.7,5.2l-.038.048-5.249-5.249-.466-.466.01-.01a5.23,5.23,0,0,1,10.44.475Z" fill="#79dca0"/>
      <path id="Path_376" data-name="Path 376" d="M42.283,43.709l-6.627,4.783L23.3,42.787h11.41v-5.7l.475-.475,5.249,5.249Z" fill="#03aa6f"/>
      <path id="Path_377" data-name="Path 377" d="M31.853,17.59a3.154,3.154,0,0,0,2.016-.694,2.2,2.2,0,0,0,.837-1.683,1.425,1.425,0,0,0-1.055-1.3l-1.8-.6V9.033a3.154,3.154,0,0,0-2.016.694A2.2,2.2,0,0,0,29,11.41a1.425,1.425,0,0,0,1.055,1.3l1.8.6Zm0-12.836A8.557,8.557,0,1,1,23.3,13.311,8.557,8.557,0,0,1,31.853,4.754Z" fill="#ffdb6f"/>
      <path id="Path_378" data-name="Path 378" d="M35.181,36.606l-.475.475H28.924A5.7,5.7,0,0,0,17.59,37.9L13.5,39.649,5.23,31.377,17.59,19.016,31.377,32.8l3.337,3.337Z" fill="#03aa6f"/>
      <g id="Group_140" data-name="Group 140">
        <path id="Path_379" data-name="Path 379" d="M34.705,15.213a2.2,2.2,0,0,1-.837,1.683,3.153,3.153,0,0,1-2.016.694V13.311l1.8.6A1.426,1.426,0,0,1,34.705,15.213Z" fill="#ffdb6f"/>
        <path id="Path_380" data-name="Path 380" d="M31.853,9.033v4.279l-1.8-.6A1.426,1.426,0,0,1,29,11.41a2.2,2.2,0,0,1,.837-1.683A3.156,3.156,0,0,1,31.853,9.033Z" fill="#ffdb6f"/>
      </g>
      <path id="Path_381" data-name="Path 381" d="M28.924,37.082H19.492l-1.9.818a5.7,5.7,0,0,1,11.334-.818Z" fill="#79dca0"/>
      <g id="Group_141" data-name="Group 141">
        <path id="Path_382" data-name="Path 382" d="M37.994,3.7a11.567,11.567,0,0,0-12.283,0L24.683,2.1a13.29,13.29,0,0,1,14.34,0Z" fill="#ffdb6f"/>
        <path id="Path_383" data-name="Path 383" d="M19.564,18.43a13.287,13.287,0,0,1-1.023-5.119h1.9a11.362,11.362,0,0,0,.879,4.389Z" fill="#ffdb6f"/>
        <path id="Path_384" data-name="Path 384" d="M31.853,26.623v-1.9a11.362,11.362,0,0,0,4.389-.879l.73,1.757A13.285,13.285,0,0,1,31.853,26.623Z" fill="#ffdb6f"/>
        <path id="Path_385" data-name="Path 385" d="M44.141,18.43l-1.757-.73a11.365,11.365,0,0,0,.879-4.389h1.9A13.289,13.289,0,0,1,44.141,18.43Z" fill="#ffdb6f"/>
      </g>
      <g id="Group_142" data-name="Group 142">
        <path id="Path_386" data-name="Path 386" d="M31.853,22.82a9.508,9.508,0,1,1,9.508-9.508A9.508,9.508,0,0,1,31.853,22.82Zm0-17.115a7.607,7.607,0,1,0,7.607,7.607A7.607,7.607,0,0,0,31.853,5.7Z" fill="#ff8030"/>
        <path id="Path_387" data-name="Path 387" d="M31.853,18.541a4.1,4.1,0,0,1-2.625-.915,3.159,3.159,0,0,1-1.178-2.413h1.9a1.251,1.251,0,0,0,.494.951,2.411,2.411,0,0,0,2.813,0,1.251,1.251,0,0,0,.5-.951c0-.133-.138-.313-.4-.4l-3.6-1.2a2.377,2.377,0,0,1-1.706-2.2A3.159,3.159,0,0,1,29.228,9a4.092,4.092,0,0,1,2.624-.915,3.593,3.593,0,0,1,3.8,3.328h-1.9c0-.773-.871-1.426-1.9-1.426a2.216,2.216,0,0,0-1.406.475,1.251,1.251,0,0,0-.5.951c0,.133.138.313.4.4l3.6,1.2a2.377,2.377,0,0,1,1.706,2.2,3.159,3.159,0,0,1-1.179,2.413A4.091,4.091,0,0,1,31.853,18.541Z" fill="#ff8030"/>
        <rect id="Rectangle_200" data-name="Rectangle 200" width="1.902" height="11.41" transform="translate(30.902 7.606)" fill="#ff8030"/>
      </g>
      <path id="Path_388" data-name="Path 388" d="M25.71,3.7a11.57,11.57,0,0,1,12.282,0l1.027-1.6a13.29,13.29,0,0,0-14.336,0Z"/>
      <path id="Path_389" data-name="Path 389" d="M18.541,13.311a13.223,13.223,0,0,0,1.025,5.124l1.755-.734a11.334,11.334,0,0,1-.879-4.39h-1.9Z"/>
      <path id="Path_390" data-name="Path 390" d="M31.853,26.623A13.19,13.19,0,0,0,36.974,25.6l-.736-1.755a11.287,11.287,0,0,1-4.385.878v1.9Z"/>
      <path id="Path_391" data-name="Path 391" d="M44.14,18.432a13.209,13.209,0,0,0,1.024-5.121h-1.9a11.3,11.3,0,0,1-.878,4.387Z"/>
      <path id="Path_392" data-name="Path 392" d="M41.361,13.311a9.508,9.508,0,1,0-9.508,9.508A9.508,9.508,0,0,0,41.361,13.311Zm-9.508,7.607a7.607,7.607,0,1,1,7.607-7.607A7.607,7.607,0,0,1,31.853,20.918Z"/>
      <path id="Path_393" data-name="Path 393" d="M33.754,11.41h1.9A3.442,3.442,0,0,0,32.8,8.2V7.606H30.9V8.2a3.442,3.442,0,0,0-2.852,3.21,2.389,2.389,0,0,0,1.711,2.2l1.141.38v2.438a1.426,1.426,0,0,1-.951-1.22h-1.9a3.442,3.442,0,0,0,2.852,3.21v.593h1.9v-.593a3.442,3.442,0,0,0,2.852-3.21,2.389,2.389,0,0,0-1.711-2.2l-1.141-.38v-2.44A1.426,1.426,0,0,1,33.754,11.41Zm-.409,3.4c.241.081.409.246.409.4a1.426,1.426,0,0,1-.951,1.222V14.628Zm-2.986-3c-.241-.081-.409-.246-.409-.4a1.426,1.426,0,0,1,.951-1.222v1.807Z"/>
      <path id="Path_394" data-name="Path 394" d="M44.886,19.295a.952.952,0,0,0-1.344,0L31.377,31.459,18.263,18.344a.952.952,0,0,0-1.344,0L4.557,30.7a.952.952,0,0,0,0,1.344l6.934,6.934H.476v1.9H12.836a.937.937,0,0,0,.375-.077l6.476-2.775H33.754v3.8H23.3a.951.951,0,0,0-.4,1.814l12.361,5.7a.949.949,0,0,0,.951-.1L52.676,37.377l2.5,2.5L36.255,56.1H31.072L13.165,49.5a.95.95,0,0,0-.329-.059H.476v1.9h12.19l17.907,6.6A.95.95,0,0,0,30.9,58h5.7a.945.945,0,0,0,.618-.229L57.192,40.656a.951.951,0,0,0,.1-1.341c-.016-.018-.032-.036-.049-.053l-3.131-3.131L57.246,33a.952.952,0,0,0,0-1.344Zm-27.3,1.066,15.77,15.77h-3.69A6.627,6.627,0,0,0,23.3,31.377a6.7,6.7,0,0,0-6.607,5.872l-2.969,1.272L6.574,31.377ZM40.714,40.8l-4.969-4.969A4.268,4.268,0,1,1,40.714,40.8Zm2.654.951-.988.713-.123-.123a6.145,6.145,0,0,0,1.111-.589v0ZM19.492,36.131a.938.938,0,0,0-.375.077l-.231.1a4.727,4.727,0,0,1,8.752-.172ZM35.55,47.4l-7.926-3.658h7.081a.951.951,0,0,0,.951-.951V38.426l5.163,5.163ZM52.154,35.4l-8.379,6.052a6.18,6.18,0,1,0-9.573-7.17L32.722,32.8,44.213,21.312,55.23,32.328Z"/>
    </g>
  </g>
</svg>
